# xmcd
#
# Track frame offsets: 
#        150
#        16213
#        33337
#        51347
#        71340
#        85890
#        97387
#        114455
#        137542
#        159652
#        172053
#        194200
#        212947
#
# Disc length: 3059 seconds
#
# Revision: 0
# Processed by: cddbd v1.5.2PL0 Copyright (c) Steve Scherf et al.
# Submitted via: ExactAudioCopy v0.99pb1
#
DISCID=c00bf10d
DTITLE=Billy's Band -  «Купчино - столица мира» и другие лучшие песни
DYEAR=2008
DGENRE=Blues
TTITLE0=01 Немного смерти, немного любви
TTITLE1=02 Оторвемся по-питерски
TTITLE2=03 В этом городе
TTITLE3=04 200 кубиков Агдама
TTITLE4=05 Зимний сон
TTITLE5=06 Парижские сезоны
TTITLE6=07 Встречай меня Москва
TTITLE7=08 Купчино - столица мира
TTITLE8=09 Где спит твое сердце
TTITLE9=10 Счастье есть
TTITLE10=11 Кладбище девичьих сердец (с Гариком Сукачевым)
TTITLE11=12 Все хорошо
TTITLE12=13 Муз Замбела
EXTD=
EXTT0=
EXTT1=
EXTT2=
EXTT3=
EXTT4=
EXTT5=
EXTT6=
EXTT7=
EXTT8=
EXTT9=
EXTT10=
EXTT11=
EXTT12=
PLAYORDER=
